<?xml version="1.0" encoding="utf-8"?>
<!-- Generator: Adobe Illustrator 23.1.1, SVG Export Plug-In . SVG Version: 6.00 Build 0)  -->
<svg version="1.1" id="Layer_1" xmlns="http://www.w3.org/2000/svg" xmlns:xlink="http://www.w3.org/1999/xlink" x="0px" y="0px"
	 viewBox="0 0 322.1 73" style="enable-background:new 0 0 322.1 73;" xml:space="preserve">
<style type="text/css">
	.st0{fill:#FFFFFF;}
</style>
<g>
	<path class="st0" d="M63.8,11.1l-5.1,5.1c5.2,5.2,8.4,12.4,8.4,20.3c0,15.9-12.9,28.8-28.8,28.8S9.6,52.4,9.6,36.5
		c0-14.7,11-26.7,25.2-28.5v7.3c-10.2,1.7-18,10.6-18,21.2c0,11.9,9.7,21.6,21.6,21.6S60,48.4,60,36.5c0-6-2.4-11.4-6.3-15.2
		l-5.1,5.1c2.6,2.6,4.2,6.2,4.2,10.2c0,7.9-6.4,14.4-14.4,14.4S24,44.4,24,36.5c0-6.7,4.6-12.3,10.8-13.9v7.7
		c-2.2,1.3-3.6,3.5-3.6,6.2c0,4,3.2,7.2,7.2,7.2s7.2-3.2,7.2-7.2c0-2.7-1.4-5-3.6-6.2V0.6h-3.6c-19.8,0-36,16.1-36,36s16.1,36,36,36
		s36-16.1,36-36C74.3,26.6,70.3,17.6,63.8,11.1z"/>
	<g>
		<path class="st0" d="M96.2,28.2H86v-9.1h32.1v9.1h-10.2v25.7H96.2V28.2z"/>
		<path class="st0" d="M136,45.2h-3.2v8.8h-11.7V19.1h16.8c3.2,0,6,0.5,8.4,1.6c2.4,1.1,4.2,2.6,5.5,4.6c1.3,2,1.9,4.3,1.9,7
			c0,2.5-0.6,4.7-1.7,6.5c-1.1,1.9-2.8,3.3-4.9,4.4l7.3,10.7H142L136,45.2z M140.7,29.2c-0.8-0.7-2-1.1-3.6-1.1h-4.3v8.2h4.3
			c1.6,0,2.8-0.4,3.6-1.1c0.8-0.7,1.2-1.7,1.2-3C141.9,30.9,141.5,29.9,140.7,29.2z"/>
		<path class="st0" d="M181.9,47.8h-13.2l-2.3,6.1h-11.9l15.2-34.8h11.5l15.2,34.8h-12.1L181.9,47.8z M178.6,39.4l-3.4-8.8l-3.4,8.8
			H178.6z"/>
		<path class="st0" d="M205.8,52.4c-3-1.5-5.3-3.7-6.9-6.5c-1.7-2.8-2.5-5.9-2.5-9.4c0-3.5,0.8-6.7,2.5-9.4c1.7-2.8,4-4.9,6.9-6.5
			c2.9-1.5,6.3-2.3,9.9-2.3c3.4,0,6.4,0.6,9,1.8c2.7,1.2,4.8,2.9,6.6,5.2l-7.4,6.6c-2.2-2.7-4.7-4.1-7.6-4.1c-2.5,0-4.4,0.8-5.9,2.4
			c-1.5,1.6-2.2,3.7-2.2,6.3c0,2.7,0.7,4.8,2.2,6.3c1.5,1.6,3.5,2.4,5.9,2.4c2.9,0,5.5-1.4,7.6-4.1l7.4,6.6c-1.7,2.3-3.9,4-6.6,5.2
			c-2.7,1.2-5.7,1.8-9,1.8C212.1,54.7,208.7,53.9,205.8,52.4z"/>
		<path class="st0" d="M248.9,42.4l-2.6,2.9v8.6h-11.5V19.1h11.5v12.6l11.4-12.6h12.8l-13.9,15.3l14.6,19.5h-13.6L248.9,42.4z"/>
		<path class="st0" d="M272.8,19.1h11.7v34.8h-11.7V19.1z"/>
		<path class="st0" d="M297.7,28.2h-10.2v-9.1h32.1v9.1h-10.2v25.7h-11.7V28.2z"/>
	</g>
</g>
</svg>
